# xmcd
#
# Track frame offsets:
#	150
#	15351
#	36664
#	52855
#	67064
#	86415
#	101744
#	121818
#	140631
#	161897
#	183008
#	199677
#	212557
#	231362
#	250723
#	270361
#	288568
#	302575
#	318137
#	331245
#	349938
#
# Disc length: 4786 seconds
#
# Revision: 1
# Processed by: cddbd v1.4PL0 Copyright (c) Steve Scherf et al.
# Submitted via: audiograbber 1.81.01
#
DISCID=2a12b015
DTITLE=Skladanka - Ballady Milosne 01
DYEAR=2002
DGENRE=Pop
TTITLE0=Patrycja Markowska - Drogi Kolego
TTITLE1=De Mono - Wszystko Na Sprzedaz
TTITLE2=Wilki - Baska
TTITLE3=Bajm - Plama Na Scianie
TTITLE4=Kukiz I Piersi - Caluj Mnie
TTITLE5=Kaja Paschalska - Tylko Ty
TTITLE6=Stachursky - Gdy Zaplaczesz
TTITLE7=Ich 3 - Powiedz
TTITLE8=Brathanki - Za Wielkim Morzem Ty
TTITLE9=Urszula - Rysa Na Szkle
TTITLE10=Gabriel Fleszar - Kropla Deszczu
TTITLE11=Anita Lipnicka - Rzeko
TTITLE12=Anita Lipnicka - Historia Jednej Milosci
TTITLE13=Kasia Klich - Lepszy Model
TTITLE14=E.Gorniak and M.Szczesniak - Dumka Na Dwa Serca
TTITLE15=Magma - Aisha
TTITLE16=Varius Manx - Zanim Zrozumiesz
TTITLE17=Magda Femme - Klamstwo
TTITLE18=Varius Manx - Piosenka Ksiezycowa
TTITLE19=Stachursky - Zostan Tu
TTITLE20=Hey - Zazdrosc
EXTD=Polska muzyka, rok 2002 i wczesniejsze.
EXTT0=
EXTT1=
EXTT2=
EXTT3=
EXTT4=
EXTT5=
EXTT6=
EXTT7=
EXTT8=
EXTT9=
EXTT10=
EXTT11=
EXTT12=
EXTT13=
EXTT14=
EXTT15=
EXTT16=
EXTT17=
EXTT18=
EXTT19=
EXTT20=
PLAYORDER=
